<?xml version="1.0" encoding="UTF-8"?><svg id="Layer_1" xmlns="http://www.w3.org/2000/svg" viewBox="0 0 283.46 46.87"><defs><style>.cls-1{fill:#f9b500;}.cls-2{fill:#fff;}</style></defs><path class="cls-2" d="M20.22,25.92v8.2H0V0h8.89v25.92h11.33Z"/><path class="cls-2" d="M48.16,21.34c0,.75-.07,1.51-.17,2.28h-18.24c.55,2.88,2.34,4.36,5.01,4.36,1.98,0,3.63-.88,4.44-2.35h8.42c-1.73,5.72-6.7,9.29-12.86,9.29-7.66,0-13.34-5.72-13.34-13.37s5.63-13.33,13.34-13.33,13.4,5.76,13.4,13.11h0ZM29.9,18.85h9.93c-.74-2.51-2.51-3.86-5.06-3.86s-4.18,1.37-4.86,3.86Z"/><path class="cls-2" d="M76.18,9.05v22.28c0,7.88-5.05,12.75-13.17,12.75-6.97,0-11.85-3.59-12.98-9.52h8.16c.59,1.68,2.68,2.58,4.74,2.58,2.84,0,5.11-1.84,5.11-4.82v-.75c-1.85,1.2-4.04,1.88-6.41,1.88-7.04,0-12.28-5.35-12.28-12.6s5.23-12.6,12.28-12.6c2.97,0,5.67,1.09,7.75,2.91l1.07-2.1h5.72ZM68.27,20.85c0-3.17-2.18-5.46-5.23-5.46s-5.24,2.3-5.24,5.46,2.18,5.49,5.24,5.49,5.23-2.3,5.23-5.49Z"/><path class="cls-2" d="M104.94,9.02v25.06h-6.54l-.72-1.77c-2.01,1.66-4.56,2.62-7.41,2.62-7.51,0-12.88-5.59-12.88-13.38s5.37-13.29,12.88-13.29c2.89,0,5.48.99,7.51,2.69l.87-1.94h6.31ZM96.89,21.57c0-3.25-2.33-5.7-5.5-5.7s-5.5,2.44-5.5,5.7,2.33,5.72,5.5,5.72,5.5-2.44,5.5-5.72Z"/><path class="cls-2" d="M107.35,0h8.46v34.11h-8.46V0Z"/><path class="cls-2" d="M136.68,22.16v11.95h-8.85V0h20.26v8.5h-11.42v13.65Z"/><path class="cls-2" d="M166.49,8.93v7.9h-3.28c-3,0-4.25,1.34-4.25,4.54v12.74h-8.46V9.05h5.67l1.32,2.78c1.73-2.04,3.84-2.9,6.77-2.9h2.24Z"/><path class="cls-2" d="M168.9,8.93h8.46v25.18h-8.46V8.93ZM168.96,0h8.33v7.33h-8.33V0Z"/><path class="cls-2" d="M206.5,21.34c0,.75-.06,1.51-.17,2.28h-18.24c.55,2.88,2.34,4.36,5.01,4.36,1.98,0,3.63-.88,4.44-2.35h8.42c-1.73,5.72-6.7,9.29-12.86,9.29-7.66,0-13.34-5.72-13.34-13.37s5.63-13.33,13.34-13.33,13.4,5.76,13.4,13.11h0ZM188.24,18.85h9.93c-.74-2.51-2.51-3.86-5.07-3.86s-4.18,1.37-4.86,3.86Z"/><path class="cls-2" d="M231.99,18.83v15.28h-8.46v-14.09c0-2.92-1.07-4.36-3.2-4.36-2.64,0-4.16,1.88-4.16,5.07v13.38h-8.46V9.05h5.94l1.16,2.58c1.83-2.08,4.56-3.33,7.73-3.33,5.7,0,9.45,4.14,9.45,10.52Z"/><path class="cls-2" d="M260.56,0v34.11h-6.26l-.8-1.86c-2,1.72-4.55,2.71-7.41,2.71-7.54,0-12.91-5.59-12.91-13.38s5.37-13.35,12.91-13.35c2.27,0,4.34.62,6.1,1.74V0h8.36ZM252.72,21.58c0-3.27-2.33-5.74-5.5-5.74s-5.5,2.46-5.5,5.74,2.33,5.73,5.5,5.73,5.5-2.46,5.5-5.73Z"/><path class="cls-2" d="M272.61,34.93c-6.7,0-10.76-3.61-10.84-9.04h8.14c0,1.83,1.25,2.68,2.86,2.68,1.24,0,2.41-.64,2.41-1.94,0-1.45-1.86-1.86-4.22-2.26-3.81-.63-8.86-1.8-8.86-7.88,0-5.02,4.2-8.27,10.49-8.27s10.31,3.39,10.41,8.47h-7.92c0-1.6-1.05-2.34-2.59-2.34-1.36,0-2.27.69-2.27,1.85,0,1.43,1.88,1.76,4.21,2.18,3.88.7,9.04,1.53,9.04,7.88,0,5.24-4.33,8.66-10.86,8.66h0Z"/><path class="cls-1" d="M132.39,46.87c-8.19,0-14.6-4.55-14.6-10.35h4.24c0,3.31,4.75,6.11,10.36,6.11s10.36-2.8,10.36-6.11h4.24c0,5.8-6.42,10.35-14.6,10.35Z"/><circle class="cls-1" cx="142.74" cy="18.07" r="3.51"/></svg>